<?xml version="1.0" encoding="UTF-8"?>
<svg width="360" height="722" version="1.1" viewBox="0 0 95.25 191.03" xmlns="http://www.w3.org/2000/svg" xmlns:cc="http://creativecommons.org/ns#" xmlns:dc="http://purl.org/dc/elements/1.1/" xmlns:rdf="http://www.w3.org/1999/02/22-rdf-syntax-ns#" xmlns:xlink="http://www.w3.org/1999/xlink">
 <defs>
  <linearGradient id="linearGradient5830">
   <stop stop-color="#4f4f4f" stop-opacity=".13084" offset="0"/>
   <stop stop-color="#4f4f4f" offset=".07"/>
   <stop stop-color="#4f4f4f" stop-opacity=".95327" offset=".937"/>
   <stop stop-color="#4f4f4f" stop-opacity="0" offset="1"/>
  </linearGradient>
  <linearGradient id="linearGradient5473-6">
   <stop stop-color="#cbcbcb" stop-opacity=".27451" offset="0"/>
   <stop stop-color="#cbcbcb" offset=".05"/>
   <stop stop-color="#cbcbcb" offset=".95"/>
   <stop stop-color="#cbcbcb" stop-opacity=".2757" offset="1"/>
  </linearGradient>
  <linearGradient id="linearGradient5220">
   <stop stop-color="#404040" offset="0"/>
   <stop stop-color="#838383" offset=".6"/>
   <stop stop-color="#a7a7a7" offset="1"/>
  </linearGradient>
  <clipPath id="clipPath4960">
   <path d="m56.734 2.0137c-29.679 0-53.572 23.894-53.572 53.572v610.44c0 29.679 23.894 53.572 53.572 53.572h246.53c29.679 0 53.572-23.894 53.572-53.572v-610.44c0-29.679-23.894-53.572-53.572-53.572zm-1.4238 3.9785h249.38c26.582 0 47.982 21.398 47.982 47.98v614.24c0 26.582-21.4 47.982-47.982 47.982h-249.38c-26.582 0-47.982-21.4-47.982-47.982v-614.24c0-26.582 21.4-47.98 47.982-47.98z" color="#000000" fill="#ebebeb"/>
  </clipPath>
  <filter id="filter4996" x="-.0017458" y="-.0009142" width="1.0035" height="1.0018" color-interpolation-filters="sRGB">
   <feGaussianBlur stdDeviation="0.26620632"/>
  </filter>
  <linearGradient id="linearGradient5226" x1="340.65" x2="349.57" y1="361.12" y2="361.12" gradientUnits="userSpaceOnUse" xlink:href="#linearGradient5220"/>
  <linearGradient id="linearGradient5226-6" x1="340.65" x2="349.57" y1="361.12" y2="361.12" gradientTransform="matrix(-.26458 0 0 .26458 95.476 7.5449e-7)" gradientUnits="userSpaceOnUse" xlink:href="#linearGradient5220"/>
  <filter id="filter5343" x="-.19228" y="-.082464" width="1.3846" height="1.1649" color-interpolation-filters="sRGB">
   <feGaussianBlur stdDeviation="0.030983682"/>
  </filter>
  <filter id="filter5347" x="-.10878" y="-.082314" width="1.2176" height="1.1646" color-interpolation-filters="sRGB">
   <feGaussianBlur stdDeviation="0.030983682"/>
  </filter>
  <clipPath id="clipPath5401">
   <rect x="-13.878" y="25.857" width="4.3765" height="7.4167" ry=".45102" color="#000000"/>
  </clipPath>
  <filter id="filter5465" x="-.32506" y="-.025913" width="1.6501" height="1.0518" color-interpolation-filters="sRGB">
   <feGaussianBlur stdDeviation="0.07139097"/>
  </filter>
  <linearGradient id="linearGradient5475" x1="-13.206" x2="-13.206" y1="26.259" y2="32.871" gradientUnits="userSpaceOnUse" xlink:href="#linearGradient5473-6"/>
  <linearGradient id="linearGradient5475-9" x1="-13.206" x2="-13.206" y1="26.259" y2="39.269" gradientTransform="translate(13.878 13.831)" gradientUnits="userSpaceOnUse" xlink:href="#linearGradient5473-6"/>
  <filter id="filter5465-7" x="-.32506" y="-.025913" width="1.6501" height="1.0518" color-interpolation-filters="sRGB">
   <feGaussianBlur stdDeviation="0.07139097"/>
  </filter>
  <clipPath id="clipPath5589">
   <path d="m0.45114 39.688c-0.24986 0-0.45114 0.20076-0.45114 0.45062v12.913c0 0.24986 0.20127 0.45114 0.45114 0.45114h3.4742c0.24986 0 0.45114-0.20127 0.45114-0.45114v-12.913c0-0.24986-0.20127-0.45062-0.45114-0.45062z" color="#000000"/>
  </clipPath>
  <clipPath id="clipPath5589-7">
   <path d="m0.45114 39.688c-0.24986 0-0.45114 0.20076-0.45114 0.45062v12.913c0 0.24986 0.20127 0.45114 0.45114 0.45114h3.4742c0.24986 0 0.45114-0.20127 0.45114-0.45114v-12.913c0-0.24986-0.20127-0.45062-0.45114-0.45062z" color="#000000"/>
  </clipPath>
  <filter id="filter5465-7-8" x="-.32506" y="-.025913" width="1.6501" height="1.0518" color-interpolation-filters="sRGB">
   <feGaussianBlur stdDeviation="0.07139097"/>
  </filter>
  <filter id="filter5465-7-2" x="-.32506" y="-.025913" width="1.6501" height="1.0518" color-interpolation-filters="sRGB">
   <feGaussianBlur stdDeviation="0.07139097"/>
  </filter>
  <linearGradient id="linearGradient5697" x1="-13.206" x2="-13.206" y1="26.259" y2="47.301" gradientTransform="translate(13.878 13.831)" gradientUnits="userSpaceOnUse">
   <stop stop-color="#cbcbcb" stop-opacity=".27451" offset="0"/>
   <stop stop-color="#cbcbcb" offset=".04"/>
   <stop stop-color="#cbcbcb" offset=".96"/>
   <stop stop-color="#cbcbcb" stop-opacity=".2757" offset="1"/>
  </linearGradient>
  <clipPath id="clipPath5738">
   <path d="m0.45114 39.688c-0.24986 0-0.45113 0.20076-0.45113 0.45062v20.945c0 0.24986 0.20127 0.45114 0.45113 0.45114h3.4742c0.24986 0 0.45114-0.20127 0.45114-0.45114v-20.945c0-0.24986-0.20127-0.45062-0.45114-0.45062z" color="#000000"/>
  </clipPath>
  <linearGradient id="linearGradient5832" x1="8.3153" x2="86.935" y1="8.4801" y2="8.4801" gradientTransform="translate(.066817 -2.6059)" gradientUnits="userSpaceOnUse" xlink:href="#linearGradient5830"/>
  <linearGradient id="linearGradient5832-3" x1="8.3153" x2="86.935" y1="8.4801" y2="8.4801" gradientTransform="matrix(1 0 0 -1 .066817 193.57)" gradientUnits="userSpaceOnUse" xlink:href="#linearGradient5830"/>
  <filter id="filter2451" color-interpolation-filters="sRGB">
   <feFlood flood-color="rgb(0,0,0)" flood-opacity=".39216" result="flood"/>
   <feComposite in="flood" in2="SourceGraphic" operator="in" result="composite1"/>
   <feGaussianBlur in="composite1" result="blur" stdDeviation="0.600601"/>
   <feOffset dx="0.898204" dy="1.1976" result="offset"/>
   <feComposite in="SourceGraphic" in2="offset" result="composite2"/>
  </filter>
  <filter id="filter2463" color-interpolation-filters="sRGB">
   <feFlood flood-color="rgb(0,0,0)" flood-opacity=".39216" result="flood"/>
   <feComposite in="flood" in2="SourceGraphic" operator="in" result="composite1"/>
   <feGaussianBlur in="composite1" result="blur" stdDeviation="0.600601"/>
   <feOffset dx="0.898204" dy="1.1976" result="offset"/>
   <feComposite in="SourceGraphic" in2="offset" result="composite2"/>
  </filter>
  <filter id="filter2475" color-interpolation-filters="sRGB">
   <feFlood flood-color="rgb(0,0,0)" flood-opacity=".39216" result="flood"/>
   <feComposite in="flood" in2="SourceGraphic" operator="in" result="composite1"/>
   <feGaussianBlur in="composite1" result="blur" stdDeviation="0.600601"/>
   <feOffset dx="0.898204" dy="1.1976" result="offset"/>
   <feComposite in="SourceGraphic" in2="offset" result="composite2"/>
  </filter>
  <filter id="filter2487" color-interpolation-filters="sRGB">
   <feFlood flood-color="rgb(0,0,0)" flood-opacity=".39216" result="flood"/>
   <feComposite in="flood" in2="SourceGraphic" operator="in" result="composite1"/>
   <feGaussianBlur in="composite1" result="blur" stdDeviation="0.600601"/>
   <feOffset dx="0.898204" dy="1.1976" result="offset"/>
   <feComposite in="SourceGraphic" in2="offset" result="composite2"/>
  </filter>
  <filter id="filter2499" color-interpolation-filters="sRGB">
   <feFlood flood-color="rgb(0,0,0)" flood-opacity=".39216" result="flood"/>
   <feComposite in="flood" in2="SourceGraphic" operator="in" result="composite1"/>
   <feGaussianBlur in="composite1" result="blur" stdDeviation="0.600601"/>
   <feOffset dx="0.898204" dy="1.1976" result="offset"/>
   <feComposite in="SourceGraphic" in2="offset" result="composite2"/>
  </filter>
 </defs>
 <metadata>
  <rdf:RDF>
   <cc:Work rdf:about="">
    <dc:format>image/svg+xml</dc:format>
    <dc:type rdf:resource="http://purl.org/dc/dcmitype/StillImage"/>
    <dc:title/>
   </cc:Work>
  </rdf:RDF>
 </metadata>
 <g>
  <path d="m94.799 44.206c0.24986 0 0.45114 0.20076 0.45114 0.45062v20.945c0 0.24986-0.20127 0.45114-0.45114 0.45114h-3.4742c-0.24986 0-0.45114-0.20127-0.45114-0.45114v-20.945c0-0.24986 0.20127-0.45062 0.45114-0.45062z" color="#000000"/>
  <path transform="matrix(-1 0 0 1 95.25 4.5184)" d="m0.54703 40.09c-0.22275 0-0.40204 0.17929-0.40204 0.40204v20.238c0 0.22275 0.17929 0.40204 0.40204 0.40204h0.12506v-21.042z" clip-path="url(#clipPath5738)" color="#000000" fill="url(#linearGradient5697)" filter="url(#filter5465-7-2)"/>
 </g>
 <g transform="translate(.013501)">
  <rect x="-.013501" y="25.857" width="4.3765" height="7.4167" ry=".45102" color="#000000"/>
  <path transform="translate(13.864)" d="m-13.331 26.259c-0.22275 0-0.40204 0.17929-0.40204 0.40204v5.8079c0 0.22275 0.17929 0.40204 0.40204 0.40204h0.12506v-6.612z" clip-path="url(#clipPath5401)" color="#000000" fill="url(#linearGradient5475)" filter="url(#filter5465)"/>
 </g>
 <g>
  <path d="m0.45114 39.688c-0.24986 0-0.45114 0.20076-0.45114 0.45062v12.913c0 0.24986 0.20127 0.45114 0.45114 0.45114h3.4742c0.24986 0 0.45114-0.20127 0.45114-0.45114v-12.913c0-0.24986-0.20127-0.45062-0.45114-0.45062z" color="#000000"/>
  <path d="m0.54703 40.09c-0.22275 0-0.40204 0.17929-0.40204 0.40204v12.206c0 0.22275 0.17929 0.40204 0.40204 0.40204h0.12506v-13.01z" clip-path="url(#clipPath5589)" color="#000000" fill="url(#linearGradient5475-9)" filter="url(#filter5465-7)"/>
 </g>
 <g transform="translate(0 17.373)">
  <path d="m0.45114 39.688c-0.24986 0-0.45114 0.20076-0.45114 0.45062v12.913c0 0.24986 0.20127 0.45114 0.45114 0.45114h3.4742c0.24986 0 0.45114-0.20127 0.45114-0.45114v-12.913c0-0.24986-0.20127-0.45062-0.45114-0.45062z" color="#000000"/>
  <path d="m0.54703 40.09c-0.22275 0-0.40204 0.17929-0.40204 0.40204v12.206c0 0.22275 0.17929 0.40204 0.40204 0.40204h0.12506v-13.01z" clip-path="url(#clipPath5589-7)" color="#000000" fill="url(#linearGradient5475-9)" filter="url(#filter5465-7-8)"/>
 </g>
 <path d="m14.483 0.19895c-7.7365 0-13.965 6.228-13.965 13.965v162.63c0 7.7365 6.228 13.965 13.965 13.965h28.301l0.57826-0.81958h2.0526 4.4204 2.0521l0.57878 0.81958h28.301c7.7365 0 13.965-6.2285 13.965-13.965v-162.63c0-7.7365-6.228-13.965-13.965-13.965z" color="#000000"/>
 <g>
  <g transform="translate(-244.34)">
   <path d="m245.18 19.826h1.1022v-1.3028h-1.1022z" color="#000000" fill="#7d7e7f"/>
   <path d="m245.18 171.2h1.1022v-151.37h-1.1022z" color="#000000" fill="#ebebeb"/>
   <path d="m245.18 172.5h1.1022v-1.3033h-1.1022z" color="#000000" fill="#7d7e7f"/>
   <path d="m338.75 172.5h-1.1022v4.3594c0 7.0332-5.6622 12.695-12.695 12.695h-65.982c-7.0332 0-12.695-5.6622-12.695-12.695v-4.3594h-1.1022v3.7827c0 7.8524 6.3219 14.174 14.174 14.174h65.228c7.8525 0 14.174-6.3219 14.174-14.174z" color="#000000" fill="#ebebeb"/>
   <path d="m338.75 171.2h-1.1022v1.3033h1.1022z" color="#000000" fill="#7d7e7f"/>
   <path d="m338.75 19.826h-1.1022v151.37h1.1022z" color="#000000" fill="#ebebeb"/>
   <path d="m338.75 18.523h-1.1022v1.3028h1.1022z" color="#000000" fill="#7d7e7f"/>
   <path d="m259.35 0.59945c-7.8524 0-14.174 6.3219-14.174 14.174v3.7496h1.1022v-4.1765c0-7.0332 5.6622-12.695 12.695-12.695h65.982c7.0332 0 12.695 5.6616 12.695 12.695v4.1765h1.1022v-3.7496c0-7.8525-6.3219-14.174-14.174-14.174z" color="#000000" fill="#ebebeb"/>
  </g>
  <path transform="scale(.26458)" d="m37.924 11.58c-6.5868-0.16785-19.141 1.8259-32.031 16.312-18.75 21.071-1.9648 8.3926-1.9648 8.3926s11.518-17.856 27.59-20.178c16.071-2.3214 11.16-3.9297 11.16-3.9297s-1.7599-0.52136-4.7539-0.59766zm284.15 0c-2.994 0.0763-4.7539 0.59766-4.7539 0.59766s-4.9113 1.6083 11.16 3.9297 27.59 20.178 27.59 20.178 16.785 12.679-1.9648-8.3926c-12.891-14.487-25.444-16.48-32.031-16.312zm-324.52 670.36c-1.4383-0.17232-0.45703 2.2888 8.332 12.166 18.75 21.071 36.785 15.715 36.785 15.715s4.9113-1.6083-11.16-3.9297c-16.071-2.3215-27.59-20.178-27.59-20.178s-4.7371-3.5781-6.3672-3.7734zm364.88 0c-1.63 0.19529-6.3672 3.7734-6.3672 3.7734s-11.518 17.856-27.59 20.178c-16.071 2.3214-11.16 3.9297-11.16 3.9297s18.035 5.3566 36.785-15.715c8.7891-9.8772 9.7703-12.338 8.332-12.166z" clip-path="url(#clipPath4960)" fill="#434343" fill-rule="evenodd" filter="url(#filter4996)"/>
 </g>
 <g>
  <rect x="42.026" y="7.2619" width="11.363" height="1.441" ry=".72052" color="#000000" fill="#1e1e1e"/>
  <circle cx="57.915" cy="7.8897" r="1.3447" color="#000000" fill="#2b2b2b"/>
  <circle cx="57.915" cy="7.8897" r="1.0774" color="#000000" fill="#0a0d13"/>
  <circle cx="57.915" cy="7.8897" r=".82092" color="#000000" fill="#091427"/>
 </g>
 <path d="m57.35 7.3405c-0.09735 0.010246-0.23568 0.15883-0.24593 0.45087-0.01024 0.29204 0.11784 0.45087 0.18957 0.45087 0.07173 0 0.36889-0.42525 0.05635-0.90173z" fill="#235a91" fill-opacity=".55608" fill-rule="evenodd" filter="url(#filter5343)"/>
 <path d="m58.049 7.2382c-0.15355 0.047247-0.18308 0.29529-0.17718 0.43703 0.0059 0.14174 0.20671 0.51381 0.44885 0.43113 0.24214-0.082682 0.28348-0.38979 0.18308-0.59649-0.1004-0.20671-0.28348-0.35435-0.45475-0.27167z" fill="#235a91" fill-opacity=".55608" fill-rule="evenodd" filter="url(#filter5347)"/>
 <path d="m40.241 8.0137a1.0572 1.0572 0 0 1-1.0533 1.0571 1.0572 1.0572 0 0 1-1.061-1.0494 1.0572 1.0572 0 0 1 1.0455-1.0649 1.0572 1.0572 0 0 1 1.0687 1.0415l-1.057 0.015561z" color="#000000" fill="#0f0f0f"/>
 <path d="m34.246 8.0385a1.5946 1.5693 0 0 1-1.5887 1.5693 1.5946 1.5693 0 0 1-1.6004-1.5577 1.5946 1.5693 0 0 1 1.5769-1.5807 1.5946 1.5693 0 0 1 1.612 1.5461l-1.5944 0.023099z" color="#000000" fill="#101010"/>
 <g>
  <path d="m14.624 2.5773c-2.2986 0-4.4368 0.6574-6.242 1.7921v1.5048c1.7204-1.1285 3.78-1.7854 6.0002-1.7854h26.412 13.796 26.412c2.2201 0 4.2798 0.65696 6.0002 1.7854v-1.5048c-1.8052-1.1347-3.9434-1.7921-6.242-1.7921h-26.17-13.796z" color="#000000" fill="url(#linearGradient5832)"/>
  <path d="m14.624 188.38c-2.2986 0-4.4368-0.65741-6.242-1.7921v-1.5048c1.7204 1.1285 3.78 1.7854 6.0002 1.7854h26.412 13.796 26.412c2.2201 0 4.2798-0.65696 6.0002-1.7854v1.5048c-1.8052 1.1347-3.9434 1.7921-6.242 1.7921h-26.17-13.796z" color="#000000" fill="url(#linearGradient5832-3)"/>
  <path transform="scale(.26458)" d="m55.779 22.201c-17.768 0-32.072 14.304-32.072 32.072v613.2c0 17.768 14.304 32.072 32.072 32.072h248.44c17.768 0 32.072-14.304 32.072-32.072v-613.2c0-17.768-14.304-32.072-32.072-32.072h-31.373a5.3579 5.3579 0 0 0-5.3574 5.3574v2.4668c0 9.6535-7.7703 17.426-17.424 17.426h-140.13c-9.6535 0-17.424-7.7723-17.424-17.426v-2.4668a5.3579 5.3579 0 0 0-5.3574-5.3574z" color="#000000" fill="#f2f2f2"/>
  <path d="m66.398 7.8694a2.1329 2.1095 0 0 1-2.1251 2.1095 2.1329 2.1095 0 0 1-2.1407-2.094 2.1329 2.1095 0 0 1 2.1093-2.1249 2.1329 2.1095 0 0 1 2.1562 2.0783l-2.1327 0.031051z" color="#000000" fill="#0f0f0f"/>
 </g>
 <g>
  <g fill="#fff">
   <rect x="9.7896" y="47.89" width="75.671" height="24.077" ry="2.5868" filter="url(#filter2451)"/>
   <rect x="9.7582" y="79.167" width="75.671" height="24.077" ry="2.5868" filter="url(#filter2463)"/>
   <rect transform="matrix(1.0059 0 0 .85124 -.28027 16.913)" x="9.6573" y="109.93" width="75.671" height="14.618" ry="2.472" filter="url(#filter2475)"/>
   <path d="m6.2736 172.63 82.7 0.0644c0.06735 1.5073 0.06854 1.4041 0.0036 4.1354-0.03237 1.7034-0.23011 2.3599-0.63455 3.419-0.40444 1.0591-1.214 1.9411-1.7425 2.356 0 0-1.2378 1.3407-2.5919 1.9322-1.5439 0.67439-3.4507 0.75077-3.4507 0.75077s-42.348-0.12715-65.8-0.19327c-2.211-6e-3 -4.6067-0.8616-6.1611-2.393-1.5143-1.4918-2.2266-3.3568-2.3247-5.8718-0.057004-1.4624 0.00114-4.1998 0.00114-4.1998z"/>
  </g>
  <path d="m14.758 5.8741s5.6075-0.024646 8.3008 0c0.73273 0.16903 1.232 0.71964 1.4175 1.4175 0.05411 0.21072 0 0.65267 0 0.65267-0.01899 1.0179 0.03219 1.7317 0.87848 2.8899 0.71378 0.70606 1.8017 1.5524 3.7316 1.7206h37.077s2.1916-0.10654 3.219-1.2002c0 0 0.78024-0.68037 1.0841-1.4721 0.30382-0.7917 0.34172-1.7415 0.30696-2.4675 0-0.65267 0.28353-1.5785 1.9467-1.541h7.7716c2.7813 0.48826 4.7027 0.91037 6.3596 3.0523 1.3702 1.5466 1.9467 3.2255 2.1262 5.4335-0.0038 1.8059-0.0076 5.5301-0.01137 7.336h-82.748l0.054777-7.336c-0.094665-4.6527 3.8565-8.2764 8.4858-8.4858" fill="#0f47f2" stroke="#6200ee" stroke-width=".26458px"/>
 </g>
 <rect x="11.934" y="56.29" width="3.1766" height="3.3634" fill="none" stroke="#000" stroke-width=".3171"/>
 <rect x="11.84" y="63.951" width="3.1766" height="3.3634" fill="none" stroke="#000" stroke-width=".3171"/>
 <text x="11.334158" y="53.466526" font-family="interv" font-size="4.2787px" stroke-width=".20056" style="line-height:1.25" xml:space="preserve"><tspan x="11.334158" y="53.466526">Scale</tspan><tspan x="11.334158" y="58.814877"/></text>
 <g fill="none" stroke="#000" stroke-width=".3171">
  <rect x="28.338" y="56.29" width="3.1766" height="3.3634"/>
  <rect x="64.822" y="63.67" width="3.1766" height="3.3634"/>
  <rect x="64.822" y="56.262" width="3.1766" height="3.3634"/>
  <rect x="28.338" y="64.228" width="3.1766" height="3.3634"/>
 </g>
 <g font-family="interv" font-size="2.8222px" stroke-width=".17208">
  <text x="16.332312" y="58.88055" style="line-height:1.25" xml:space="preserve"><tspan x="16.332312" y="58.88055" font-family="interv" font-size="2.8222px" stroke-width=".17208">Major</tspan></text>
  <text x="32.112801" y="59.14444" style="line-height:1.25" xml:space="preserve"><tspan x="32.112801" y="59.14444" font-family="interv" font-size="2.8222px" stroke-width=".17208">Minor</tspan></text>
  <text x="69.147316" y="66.3395" style="line-height:1.25" xml:space="preserve"><tspan x="69.147316" y="66.3395" font-family="interv" font-size="2.8222px" stroke-width=".17208">Diminished</tspan></text>
  <text x="69.411919" y="58.666576" style="line-height:1.25" xml:space="preserve"><tspan x="69.411919" y="58.666576" font-family="interv" font-size="2.8222px" stroke-width=".17208">Augmented</tspan></text>
  <text x="16.237803" y="66.817368" style="line-height:1.25" xml:space="preserve"><tspan x="16.237803" y="66.817368" font-family="interv" font-size="2.8222px" stroke-width=".17208">Maj 7th</tspan></text>
  <text x="32.2589" y="66.821945" style="line-height:1.25" xml:space="preserve"><tspan x="32.2589" y="66.821945" font-family="interv" font-size="2.8222px" stroke-width=".17208">Dom 7th</tspan></text>
 </g>
 <rect x="45.563" y="63.935" width="3.1766" height="3.3634" fill="none" stroke="#000" stroke-width=".3171"/>
 <text x="49.483921" y="66.529091" font-family="interv" font-size="2.8222px" stroke-width=".17208" style="line-height:1.25" xml:space="preserve"><tspan x="49.483921" y="66.529091" font-family="interv" font-size="2.8222px" stroke-width=".17208">Min 7th</tspan></text>
 <text x="11.169232" y="84.936783" font-family="interv" font-size="4.2787px" stroke-width=".20056" style="line-height:1.25" xml:space="preserve"><tspan x="11.169232" y="84.936783">Techniques</tspan><tspan x="11.169232" y="90.285133"/></text>
 <g fill="none" stroke="#000" stroke-width=".3171">
  <rect x="11.743" y="88.541" width="3.1766" height="3.3634"/>
  <rect x="11.65" y="96.202" width="3.1766" height="3.3634"/>
  <rect x="31.851" y="96.479" width="3.1766" height="3.3634"/>
 </g>
 <g font-family="interv">
  <text x="16.141518" y="91.660675" font-size="2.8222px" stroke-width=".17208" style="line-height:1.25" xml:space="preserve"><tspan x="16.141518" y="91.660675" font-family="interv" font-size="2.8222px" stroke-width=".17208">Scales</tspan></text>
  <text x="36.171478" y="91.451401" font-size="2.8222px" stroke-width=".13361" style="line-height:1.25" xml:space="preserve"><tspan x="36.171478" y="91.451401" font-family="interv" font-size="2.8222px" stroke-width=".13361">Arpeggio</tspan></text>
  <text x="35.768459" y="99.633629" font-size="2.8656px" stroke-width=".17472" style="line-height:1.25" xml:space="preserve"><tspan x="35.768459" y="99.633629" font-family="interv" font-size="2.8656px" stroke-width=".17472">Dom 7th</tspan></text>
 </g>
 <rect x="31.749" y="88.806" width="3.1766" height="3.3634" fill="none" stroke="#000" stroke-width=".3171"/>
 <text x="16.086784" y="99.384247" font-family="interv" font-size="2.8276px" stroke-width=".1724" style="line-height:1.25" xml:space="preserve"><tspan x="16.086784" y="99.384247" font-family="interv" font-size="2.8276px" stroke-width=".1724">Br Chords</tspan></text>
 <rect x="51.43" y="96.479" width="3.1766" height="3.3634" fill="none" stroke="#000" stroke-width=".3171"/>
 <text x="55.734535" y="91.924538" font-family="interv" font-size="3.175px" stroke-width=".17208" style="line-height:1.25" xml:space="preserve"><tspan x="55.734535" y="91.924538" font-family="interv" font-size="3.175px" stroke-width=".17208">Solid Chords</tspan></text>
 <text x="55.353977" y="99.570465" font-family="interv" font-size="2.7801px" stroke-width=".16951" style="line-height:1.25" xml:space="preserve"><tspan x="55.353977" y="99.570465" font-family="interv" font-size="2.7801px" stroke-width=".16951">Con. Motion</tspan></text>
 <rect x="51.328" y="88.806" width="3.1766" height="3.3634" fill="none" stroke="#000" stroke-width=".3171"/>
 <text x="10.494447" y="118.207" font-family="interv" font-size="4.2787px" stroke-width=".20056" style="line-height:1.25" xml:space="preserve"><tspan x="10.494447" y="118.207">Custom Roots</tspan><tspan x="10.494447" y="123.55535"/></text>
 <rect x="44.252" y="114.1" width="18.389" height="5.2325" ry="1.1021" fill="#0f47f2"/>
 <text x="45.966709" y="117.66574" fill="#fcfffe" fill-opacity=".98" font-family="interv" font-size="3.0141px" stroke-width=".14129" style="line-height:1.25" xml:space="preserve"><tspan x="45.966709" y="117.66574" fill="#fcfffe" fill-opacity=".98" stroke-width=".14129">Set Roots</tspan></text>
 <g>
  <rect x="68.13" y="115.38" width="11.245" height="3.2128" ry="1.0766" fill="#e6e6e6"/>
  <ellipse cx="69.919" cy="116.88" rx="1.7889" ry="1.7889" fill="#0f47f2"/>
  <rect x="10.98" y="135.14" width="31.654" height="7.6729" ry="1.6161" fill="#0f47f2" filter="url(#filter2499)"/>
 </g>
 <text x="22.849274" y="140.04686" fill="#ffffff" font-family="interv" font-size="3.5278px" stroke-width=".16536" style="line-height:1.25" xml:space="preserve"><tspan x="22.849274" y="140.04686" fill="#ffffff" stroke-width=".16536">Save</tspan></text>
 <rect x="52.285" y="135.26" width="31.654" height="7.6844" ry="1.6185" fill="#0f47f2" filter="url(#filter2487)"/>
 <text x="61.652077" y="139.97766" fill="#ffffff" font-family="interv" font-size="3.4686px" stroke-width=".16259" style="line-height:1.25" xml:space="preserve"><tspan x="61.652077" y="139.97766" fill="#ffffff" stroke-width=".16259">Practice</tspan></text>
 <g transform="translate(-.11323)">
  <path transform="scale(.26458)" d="m325.58 15.363c-1.1746-0.11631-0.62011 1.0547 2.0156 3.4961 8.6962 8.0551 14.096 19.714 14.096 32.691v309.57 309.57c0 12.977-5.3995 24.636-14.096 32.691-2.6357 2.4414-3.1902 3.6125-2.0156 3.4961 0.70474-0.0698 2.0322-0.60282 3.9043-1.6016 12.709-6.7804 20.09-21.409 20.09-36.945v-307.21-307.21c0-15.537-7.3804-30.165-20.09-36.945-1.8721-0.99874-3.1996-1.5318-3.9043-1.6016z" color="#000000" fill="url(#linearGradient5226)"/>
  <path d="m9.3334 4.0649c0.31077-0.03077 0.16407 0.27905-0.5333 0.92501-2.3009 2.1312-3.7295 5.216-3.7295 8.6496v81.908 81.908c0 3.4336 1.4286 6.5184 3.7295 8.6496 0.69737 0.64596 0.84407 0.9558 0.5333 0.925-0.18646-0.0185-0.53768-0.15949-1.033-0.42374-3.3627-1.794-5.3154-5.6643-5.3154-9.7751v-81.283-81.283c0-4.1108 1.9527-7.9811 5.3154-9.7751 0.49533-0.26425 0.84655-0.40528 1.033-0.42375z" color="#000000" fill="url(#linearGradient5226-6)"/>
 </g>
 <g font-family="interv" font-size="2.447px" stroke-width=".1147">
  <text x="13.162678" y="182.83713" fill="#0f47f2" stroke="#0f47f2" style="line-height:1.25" xml:space="preserve"><tspan x="13.162678" y="182.83713" fill="#0f47f2" stroke="#0f47f2" stroke-width=".1147">Routine Creator</tspan></text>
  <text x="43.996395" y="182.91319" fill="#999999" stroke="#999999" style="line-height:1.25" xml:space="preserve"><tspan x="43.996395" y="182.91319" fill="#999999" stroke="#999999" stroke-width=".1147">Saved</tspan></text>
  <text x="67.937202" y="182.58276" fill="#999999" stroke="#999999" style="line-height:1.25" xml:space="preserve"><tspan x="67.937202" y="182.58276" fill="#999999" stroke="#999999" stroke-width=".1147">History</tspan></text>
 </g>
 <text x="9.9456768" y="37.94268" fill="#000000" font-family="interv" font-size="7.5765px" stroke-width=".35515" style="line-height:1.25" xml:space="preserve"><tspan x="9.9456768" y="37.94268" fill="#000000" stroke-width=".35515">Create Routine</tspan></text>
 <text x="10.11083" y="18.857319" font-family="interv" font-size="4.072px" stroke-width=".19088" style="line-height:1.25" xml:space="preserve"><tspan x="10.11083" y="18.857319" fill="#ffffff" stroke-width=".19088">Scales App</tspan></text>
 <rect x="45.371" y="55.997" width="3.1766" height="3.3634" fill="none" stroke="#000" stroke-width=".3171"/>
 <text x="49.291935" y="58.591568" font-family="interv" font-size="2.8222px" stroke-width=".17208" style="line-height:1.25" xml:space="preserve"><tspan x="49.291935" y="58.591568" font-family="interv" font-size="2.8222px" stroke-width=".17208">Mel. Minor</tspan></text>
 <g>
  <g transform="matrix(.012817 0 0 .012817 18.753 173.33)" fill="#0f47f2">
   <g fill="#0f47f2">
    <g id="home" fill="#0f47f2">
     <polygon points="510 267.75 255 38.25 0 267.75 76.5 267.75 76.5 471.75 204 471.75 204 318.75 306 318.75 306 471.75 433.5 471.75 433.5 267.75" fill="#0f47f2"/>
    </g>
   </g>
  </g>
  <g transform="matrix(.010852 0 0 .010852 44.983 173.77)" fill="#999">
   <path d="m197.33 0h-160c-20.586 0-37.332 16.746-37.332 37.332v96c0 20.59 16.746 37.336 37.332 37.336h160c20.59 0 37.336-16.746 37.336-37.336v-96c0-20.586-16.746-37.332-37.336-37.332z"/>
   <path d="m197.33 213.33h-160c-20.586 0-37.332 16.746-37.332 37.336v224c0 20.586 16.746 37.332 37.332 37.332h160c20.59 0 37.336-16.746 37.336-37.332v-224c0-20.59-16.746-37.336-37.336-37.336z"/>
   <path d="m474.67 341.33h-160c-20.59 0-37.336 16.746-37.336 37.336v96c0 20.586 16.746 37.332 37.336 37.332h160c20.586 0 37.332-16.746 37.332-37.332v-96c0-20.59-16.746-37.336-37.332-37.336z"/>
   <path d="m474.67 0h-160c-20.59 0-37.336 16.746-37.336 37.332v224c0 20.59 16.746 37.336 37.336 37.336h160c20.586 0 37.332-16.746 37.332-37.336v-224c0-20.586-16.746-37.332-37.332-37.332z"/>
  </g>
  <g transform="matrix(.012058 0 0 .012058 69.202 173.29)" fill="#999">
   <g fill="#999">
    <g fill="#999">
     <path d="m460.8 25.55c-28.2-0.1-51.1 22.8-51.2 51 0 13.3 5.1 26.1 14.4 35.6l-93.5 187.1c-2-0.3-4.1-0.6-6.2-0.6-6.6 0-13.2 1.3-19.3 3.8l-72.6-81.7c4.2-7.5 6.5-15.9 6.6-24.6 0-28.3-22.9-51.2-51.2-51.2s-51.2 22.9-51.2 51.2c0.1 12.2 4.5 24 12.6 33.2l-88.9 155.5c-3-0.6-6.1-0.9-9.1-0.9-28.3 0-51.2 22.9-51.2 51.2s22.9 51.2 51.2 51.2 51.2-22.9 51.2-51.2c-0.1-12.2-4.5-24-12.6-33.2l88.8-155.5c9.5 1.9 19.4 0.9 28.3-2.9l72.6 81.7c-4.2 7.5-6.4 16-6.5 24.6-0.1 28.3 22.8 51.3 51 51.4 28.3 0.1 51.3-22.8 51.4-51 0-13.3-5.1-26.2-14.4-35.8l93.5-187.1c2 0.3 4.1 0.6 6.2 0.6 28.3 0 51.2-22.9 51.2-51.2s-22.8-51.2-51.1-51.2z" fill="#999"/>
    </g>
   </g>
  </g>
 </g>
 <path d="m83.447 17.8-0.43009-0.24836c0.04341-0.23422 0.04341-0.47451 0-0.70872l0.43009-0.24836c0.04947-0.02827 0.07168-0.08682 0.05553-0.14135-0.11206-0.35942-0.30288-0.6845-0.55225-0.9551-0.03837-0.0414-0.10096-0.05149-0.14942-0.02322l-0.43009 0.24836c-0.18072-0.15548-0.38869-0.27562-0.61383-0.35437v-0.49571c0-0.05654-0.03937-0.10601-0.0949-0.11812-0.37052-0.08279-0.7501-0.07875-1.1025 0-0.05553 0.01212-0.0949 0.06159-0.0949 0.11812v0.49672c-0.22413 0.07976-0.43211 0.1999-0.61383 0.35436l-0.42908-0.24836c-0.04947-0.02827-0.11106-0.01918-0.14942 0.02322-0.24938 0.26956-0.44019 0.59465-0.55225 0.9551-0.01716 0.05452 6e-3 0.11308 0.05553 0.14135l0.43009 0.24836c-0.04341 0.23422-0.04341 0.47451 0 0.70872l-0.43009 0.24836c-0.04947 0.02827-0.07168 0.08682-0.05553 0.14135 0.11206 0.35942 0.30288 0.6845 0.55225 0.9551 0.03837 0.04139 0.10096 0.05149 0.14942 0.02322l0.43009-0.24836c0.18072 0.15548 0.38869 0.27562 0.61383 0.35437v0.49672c0 0.05654 0.03937 0.10601 0.0949 0.11812 0.37052 0.08279 0.7501 0.07875 1.1025 0 0.05553-0.01212 0.0949-0.06159 0.0949-0.11812v-0.49672c0.22413-0.07976 0.43211-0.1999 0.61383-0.35437l0.43009 0.24836c0.04947 0.02827 0.11106 0.01918 0.14942-0.02322 0.24937-0.26956 0.44019-0.59466 0.55225-0.9551 0.01514-0.05553-0.0071-0.11408-0.05654-0.14235z" fill="#fff" stroke-width=".010096"/>
</svg>
