<svg
        width="60px"
        height="60px"
        viewBox="0 0 122.2 72.101"
        xmlns="http://www.w3.org/2000/svg"
      >
        <g
          id="svgGroup"
          stroke-linecap="round"
          fill-rule="evenodd"
          font-size="9pt"
          stroke="#000"
          stroke-width="0.25mm"
          fill="#6c82fb"
          padding="2%"
        >
          <path
            d="M 48.3 8.5 L 47 9.9 A 31.136 31.136 0 0 0 44.655 7.579 A 24.426 24.426 0 0 0 42.75 6.05 Q 40.6 4.5 38.25 3.6 A 23.736 23.736 0 0 0 33.662 2.366 A 26.389 26.389 0 0 0 33.25 2.3 A 34.94 34.94 0 0 0 30.141 1.979 A 45.594 45.594 0 0 0 27.4 1.9 A 49.863 49.863 0 0 0 21.2 2.258 Q 14.614 3.086 10.77 5.832 A 13.569 13.569 0 0 0 9.85 6.55 A 15.188 15.188 0 0 0 4.435 17.686 A 20.768 20.768 0 0 0 4.4 18.9 A 18.295 18.295 0 0 0 4.666 22.118 Q 4.986 23.91 5.693 25.34 A 9.351 9.351 0 0 0 6.7 26.95 A 11.69 11.69 0 0 0 9.328 29.377 Q 11.243 30.693 13.95 31.65 A 63.39 63.39 0 0 0 17.702 32.836 Q 21.616 33.95 26.8 35 A 128.496 128.496 0 0 1 33.311 36.486 Q 36.256 37.244 38.827 38.082 A 71.655 71.655 0 0 1 40.5 38.65 A 27.33 27.33 0 0 1 44.627 40.481 Q 46.873 41.723 48.53 43.298 A 15.603 15.603 0 0 1 49.45 44.25 A 11.798 11.798 0 0 1 51.948 48.936 Q 52.457 50.731 52.569 52.873 A 23.617 23.617 0 0 1 52.6 54.1 A 18.555 18.555 0 0 1 52.127 58.371 A 15.1 15.1 0 0 1 50.9 61.75 A 15.01 15.01 0 0 1 45.963 67.341 A 17.773 17.773 0 0 1 45.95 67.35 A 21.572 21.572 0 0 1 41.882 69.536 A 29.125 29.125 0 0 1 38.05 70.8 A 36.827 36.827 0 0 1 32.62 71.754 A 49.03 49.03 0 0 1 27.6 72 A 47.61 47.61 0 0 1 21.131 71.577 A 39.103 39.103 0 0 1 17.05 70.8 Q 12.2 69.6 8 67.15 A 40.3 40.3 0 0 1 1.5 62.398 A 46.401 46.401 0 0 1 0 61 L 1.5 59.7 Q 4.2 62.5 7.1 64.5 Q 10 66.5 13.25 67.8 Q 16.5 69.1 20.1 69.7 Q 23.7 70.3 27.7 70.3 A 45.657 45.657 0 0 0 34.177 69.869 Q 40.318 68.988 44.45 66.3 A 12.849 12.849 0 0 0 50.418 57.001 A 17.968 17.968 0 0 0 50.6 54.4 A 18.354 18.354 0 0 0 50.277 50.856 Q 49.85 48.686 48.858 46.98 A 10.546 10.546 0 0 0 48.1 45.85 A 13.59 13.59 0 0 0 45.182 43.088 Q 43.791 42.097 42.029 41.269 A 27.29 27.29 0 0 0 40.35 40.55 A 54.616 54.616 0 0 0 36.004 39.078 Q 32.029 37.901 26.9 36.9 A 138.265 138.265 0 0 1 21.373 35.726 Q 18.663 35.089 16.304 34.398 A 71.518 71.518 0 0 1 13.6 33.55 A 24.473 24.473 0 0 1 9.848 31.952 Q 7.031 30.444 5.25 28.35 Q 2.4 25 2.4 19.1 Q 2.4 12.9 5.45 8.65 Q 8.5 4.4 14.1 2.2 A 30.557 30.557 0 0 1 20.535 0.492 Q 23.46 0.031 26.759 0.002 A 50.563 50.563 0 0 1 27.2 0 Q 31.7 0 35.45 0.85 Q 39.2 1.7 42.35 3.55 A 23.695 23.695 0 0 1 46.334 6.517 A 29.259 29.259 0 0 1 48.3 8.5 Z M 120.5 15.6 L 118.6 16.2 A 27.656 27.656 0 0 0 115.417 11.332 A 22.115 22.115 0 0 0 111.9 7.9 A 26.39 26.39 0 0 0 105.037 4.018 A 24.575 24.575 0 0 0 103.35 3.45 Q 98.8 2.1 94.2 2.1 A 32.295 32.295 0 0 0 86.789 2.919 A 26.422 26.422 0 0 0 81 5 Q 75.2 7.9 71.2 12.8 Q 67.2 17.7 65.15 23.65 Q 63.1 29.6 63.1 35.8 Q 63.1 42.6 65.5 48.75 Q 67.9 54.9 72.2 59.7 Q 76.5 64.5 82.2 67.3 Q 87.9 70.1 94.5 70.1 A 29.935 29.935 0 0 0 102.118 69.084 A 35.017 35.017 0 0 0 104.1 68.5 Q 109 66.9 113.3 63.6 A 24.696 24.696 0 0 0 119.6 56.37 A 29.041 29.041 0 0 0 120.3 55.1 L 122.2 55.6 Q 119.8 60.9 115.2 64.6 Q 110.6 68.3 105.05 70.2 A 34.879 34.879 0 0 1 97.149 71.95 A 31.187 31.187 0 0 1 94.1 72.1 A 28.58 28.58 0 0 1 82.817 69.878 A 27.632 27.632 0 0 1 80.85 68.95 Q 74.8 65.8 70.35 60.55 Q 65.9 55.3 63.5 48.75 Q 61.1 42.2 61.1 35.5 Q 61.1 29.1 63.35 22.85 Q 65.6 16.6 69.9 11.45 Q 74.2 6.3 80.4 3.2 A 29.229 29.229 0 0 1 89.718 0.41 A 37.291 37.291 0 0 1 94.6 0.1 A 34.496 34.496 0 0 1 102.229 0.903 A 25.463 25.463 0 0 1 110.7 4.45 A 27.354 27.354 0 0 1 118.922 12.718 A 26.676 26.676 0 0 1 120.5 15.6 Z"
            vector-effect="non-scaling-stroke"
          />
        </g>
      </svg>